<?xml version="1.0" standalone="no"?>
<!DOCTYPE svg PUBLIC "-//W3C//DTD SVG 20010904//EN"
 "http://www.w3.org/TR/2001/REC-SVG-20010904/DTD/svg10.dtd">
<svg version="1.0" xmlns="http://www.w3.org/2000/svg"
 width="914.000000pt" height="289.000000pt" viewBox="0 0 914.000000 289.000000"
 preserveAspectRatio="xMidYMid meet">
<metadata>
Created by potrace 1.15, written by Peter Selinger 2001-2017
</metadata>
<g transform="translate(0.000000,289.000000) scale(0.100000,-0.100000)"
fill="#000000" stroke="none">
<path d="M1437 2855 c-3 -11 -43 -261 -88 -555 -44 -294 -83 -537 -85 -539 -2
-2 -90 53 -195 123 -105 70 -193 126 -195 124 -2 -2 53 -89 122 -192 69 -103
123 -190 120 -193 -3 -3 -252 -43 -553 -89 -301 -45 -550 -84 -553 -85 -7 -2
159 -28 665 -104 248 -37 451 -69 453 -70 2 -2 -55 -91 -127 -199 -72 -108
-128 -196 -124 -196 3 0 92 57 196 126 104 69 191 123 193 121 2 -2 41 -247
86 -545 45 -298 85 -542 88 -542 3 0 43 244 88 542 45 298 84 544 86 546 2 2
92 -55 200 -127 108 -72 196 -129 196 -126 0 3 -59 93 -131 201 -72 108 -129
197 -127 199 2 1 254 40 560 86 306 46 555 86 553 88 -3 2 -250 41 -550 86
-301 46 -549 85 -551 88 -3 3 48 85 113 184 151 225 141 208 112 192 -13 -7
-102 -64 -197 -127 -94 -64 -174 -113 -176 -111 -2 2 -41 247 -85 544 -45 297
-83 547 -84 555 -2 11 -5 9 -10 -5z m91 -1272 c95 -70 96 -205 3 -269 -66 -45
-177 -26 -223 38 -22 32 -34 101 -24 142 8 34 54 86 91 102 40 19 119 12 153
-13z"/>
<path d="M1190 2640 c-424 -91 -764 -391 -908 -800 -32 -91 -67 -248 -58 -257
3 -3 76 5 163 18 l157 24 31 90 c99 286 297 487 573 581 53 18 100 39 104 46
6 11 49 287 48 311 0 10 -12 8 -110 -13z"/>
<path d="M1584 2633 c3 -16 12 -77 21 -138 26 -179 17 -162 97 -186 38 -11
107 -39 152 -63 226 -116 383 -304 461 -551 l22 -70 139 -22 c200 -31 187 -34
179 30 -4 28 -18 90 -32 137 -103 361 -362 654 -706 801 -73 30 -222 73 -295
83 -43 6 -44 6 -38 -21z"/>
<path d="M3707 2523 c-5 -9 -537 -1199 -568 -1270 l-18 -43 53 0 53 0 96 213
97 212 261 0 262 0 91 -210 92 -210 108 -3 c64 -2 107 1 104 7 -1 5 -131 302
-288 660 -276 630 -286 651 -312 651 -15 0 -29 -3 -31 -7z m86 -548 l105 -240
-109 -3 c-60 -1 -158 -1 -218 0 l-109 3 90 200 c49 110 98 220 109 244 11 24
21 42 23 40 2 -2 51 -112 109 -244z"/>
<path d="M6991 1878 c-162 -359 -296 -656 -298 -660 -2 -5 20 -8 50 -8 l54 0
99 215 98 215 262 0 261 0 94 -215 94 -215 108 0 c59 0 107 1 107 3 0 2 -130
298 -289 658 -281 636 -289 654 -317 657 l-29 3 -294 -653z m300 275 c53 -117
179 -410 179 -417 0 -3 -99 -6 -219 -6 l-219 0 111 245 c61 135 112 245 114
245 1 0 17 -30 34 -67z"/>
<path d="M8435 2511 c-117 -34 -185 -87 -229 -180 -26 -56 -31 -78 -31 -146 0
-160 73 -245 350 -402 99 -56 199 -118 223 -139 111 -95 131 -205 54 -294 -52
-61 -99 -80 -203 -80 -76 0 -93 4 -147 30 -71 36 -120 87 -162 169 -28 57 -32
60 -55 51 -39 -15 -85 -40 -85 -46 0 -3 16 -37 36 -75 77 -146 210 -219 401
-219 155 0 262 38 347 122 68 68 96 139 96 241 -1 161 -83 246 -419 433 -126
70 -229 153 -257 205 -34 67 -3 170 65 216 110 74 296 46 385 -59 20 -23 48
-67 63 -100 14 -32 30 -58 35 -58 14 0 86 39 93 50 11 19 -50 133 -97 182 -25
26 -68 58 -95 71 -94 48 -256 61 -368 28z"/>
<path d="M4290 2455 l0 -45 225 0 225 0 0 -605 0 -605 105 0 105 0 0 605 0
605 225 0 225 0 0 45 0 45 -555 0 -555 0 0 -45z"/>
<path d="M5650 1850 l0 -650 415 0 415 0 0 40 0 40 -310 0 -310 0 0 610 0 610
-105 0 -105 0 0 -650z"/>
<path d="M225 1272 c36 -217 108 -393 229 -557 149 -202 363 -356 605 -434 90
-30 227 -58 236 -49 7 6 -33 288 -43 306 -4 8 -50 29 -102 47 -284 97 -497
316 -580 595 -13 41 -24 76 -24 77 -1 1 -62 11 -136 22 -74 12 -148 23 -163
26 -27 5 -28 4 -22 -33z"/>
<path d="M2500 1285 c-80 -13 -150 -24 -156 -24 -7 -1 -15 -18 -19 -38 -13
-73 -66 -191 -125 -280 -109 -165 -277 -295 -465 -358 -52 -17 -97 -34 -100
-37 -8 -7 -55 -311 -49 -317 8 -8 149 21 235 49 176 58 332 151 478 286 l81
76 0 -206 0 -206 140 0 140 0 0 540 c0 297 -3 540 -7 539 -5 -1 -73 -12 -153
-24z"/>
<path d="M5594 992 c-151 -52 -226 -209 -178 -372 21 -70 98 -149 168 -173
115 -39 238 -10 309 73 43 50 44 56 16 65 -15 5 -25 1 -37 -17 -69 -98 -172
-122 -264 -63 -58 38 -90 103 -96 191 -5 87 12 146 62 202 40 45 81 62 153 62
57 0 58 0 114 -59 50 -53 59 -58 74 -47 17 12 17 15 -8 47 -74 98 -193 132
-313 91z"/>
<path d="M6877 996 c-89 -32 -158 -103 -188 -194 -19 -57 -6 -161 27 -222 54
-99 141 -150 258 -150 108 0 209 69 257 174 29 64 26 178 -7 244 -63 128 -218
193 -347 148z m189 -58 c73 -64 101 -187 70 -308 -29 -111 -77 -161 -160 -167
-59 -5 -99 15 -138 69 -37 49 -48 92 -48 188 0 170 59 250 182 250 50 0 62 -4
94 -32z"/>
<path d="M8236 996 c-196 -73 -260 -320 -121 -474 63 -70 125 -95 226 -90 67
3 83 7 120 33 23 17 56 47 73 68 25 32 28 40 16 47 -24 16 -36 12 -51 -17 -18
-35 -83 -81 -124 -89 -82 -15 -186 55 -213 143 -14 49 -16 145 -2 193 24 88
102 150 188 150 68 0 103 -19 142 -75 27 -39 34 -44 51 -35 10 6 19 13 19 16
0 18 -68 88 -107 111 -55 32 -157 41 -217 19z"/>
<path d="M3190 716 l0 -276 45 0 44 0 3 120 3 121 80 2 c64 2 88 7 118 26 92
57 90 185 -4 248 -40 26 -50 28 -166 32 l-123 3 0 -276z m185 224 c76 -29 101
-127 49 -189 -23 -27 -32 -31 -79 -31 l-52 0 -7 46 c-3 26 -6 78 -6 115 l0 69
34 0 c19 0 46 -4 61 -10z"/>
<path d="M3632 783 c3 -206 3 -208 30 -255 39 -65 106 -98 200 -98 39 0 85 7
106 16 51 21 100 71 112 114 5 19 10 124 10 233 0 190 -1 197 -20 197 -19 0
-20 -7 -20 -182 0 -101 -5 -201 -11 -223 -19 -71 -77 -115 -149 -115 -59 0
-105 23 -135 68 -25 38 -26 45 -32 246 l-6 206 -44 0 -45 0 4 -207z"/>
<path d="M4210 716 l0 -276 155 0 c137 0 161 2 196 20 52 27 79 72 79 132 0
54 -29 97 -80 118 l-31 13 26 17 c41 27 58 59 58 107 0 51 -23 88 -74 118 -29
17 -56 21 -181 23 l-148 4 0 -276z m232 224 c68 -19 96 -85 63 -149 -18 -36
-60 -51 -141 -51 l-64 0 0 105 0 105 53 0 c28 0 69 -5 89 -10z m32 -254 c18
-8 41 -24 50 -37 19 -28 21 -97 2 -121 -22 -30 -81 -48 -156 -48 l-70 0 0 110
0 110 70 0 c39 0 86 -6 104 -14z"/>
<path d="M4740 716 l0 -276 180 0 c173 0 180 1 180 20 0 19 -7 20 -130 20
l-130 0 -2 253 -3 252 -47 3 -48 3 0 -275z"/>
<path d="M5190 715 l0 -275 45 0 45 0 0 275 0 275 -45 0 -45 0 0 -275z"/>
<path d="M6230 716 l0 -276 45 0 44 0 3 120 3 121 80 2 c64 2 88 7 118 26 92
57 90 185 -4 248 -40 26 -50 28 -166 32 l-123 3 0 -276z m185 224 c76 -29 101
-127 49 -189 -23 -27 -32 -31 -79 -31 l-52 0 -7 46 c-3 26 -6 78 -6 115 l0 69
34 0 c19 0 46 -4 61 -10z"/>
<path d="M7370 716 l0 -276 180 0 c173 0 180 1 180 20 0 19 -7 20 -130 20
l-130 0 -2 253 -3 252 -47 3 -48 3 0 -275z"/>
<path d="M7820 715 l0 -275 45 0 45 0 0 275 0 275 -45 0 -45 0 0 -275z"/>
<path d="M8646 963 c10 -16 57 -89 106 -164 l88 -136 0 -111 0 -112 45 0 45 0
0 118 0 117 100 155 c75 116 96 156 85 158 -29 6 -40 -5 -124 -137 -46 -72
-87 -128 -91 -126 -4 3 -45 63 -91 135 l-84 130 -49 0 -48 0 18 -27z"/>
</g>
</svg>
